HIERARCHY
ROOT root
{
	OFFSET	0	13.1	24.9
	CHANNELS 6  Xposition Yposition Zposition Xrotation Yrotation Zrotation
	JOINT spine_1
	{
		OFFSET	0	9.99999	0
		CHANNELS 3  Xrotation Yrotation Zrotation
		JOINT spine_2
		{
			OFFSET	0	112	-10
			CHANNELS 3  Xrotation Yrotation Zrotation
			JOINT spine_3
			{
				OFFSET	0	206.5	19.3
				CHANNELS 3  Xrotation Yrotation Zrotation
				JOINT spine_4
				{
					OFFSET	0	110.4	14.6
					CHANNELS 3  Xrotation Yrotation Zrotation
					JOINT neck_1
					{
						OFFSET	0	71.8	-50.3
						CHANNELS 3  Xrotation Yrotation Zrotation
						JOINT neck_2
						{
							OFFSET	0	86.2	-25.8
							CHANNELS 3  Xrotation Yrotation Zrotation
							JOINT head_ee
							{
								OFFSET	0	179.8	-8.7
								CHANNELS 3  Xrotation Yrotation Zrotation
								End Site
								{
									OFFSET	1	0	0
								}
							}
						}
					}
					JOINT left_clavicle
					{
						OFFSET	-43.2	22.4	-70.8
						CHANNELS 3  Xrotation Yrotation Zrotation
						JOINT left_shoulder
						{
							OFFSET	-93.9	-5.79999	48.7
							CHANNELS 3  Xrotation Yrotation Zrotation
							JOINT left_elbow
							{
								OFFSET	-291.4	-30.8	15.2
								CHANNELS 3  Xrotation Yrotation Zrotation
								JOINT left_lowarm_twist
								{
									OFFSET	-110.7	-3.89999	13.6
									CHANNELS 3  Xrotation Yrotation Zrotation
									JOINT left_hand
									{
										OFFSET	-110.7	-3.89999	13.6
										CHANNELS 3  Xrotation Yrotation Zrotation
										JOINT left_ee
										{
											OFFSET	-80.8	-5.10001	12.1
											CHANNELS 3  Xrotation Yrotation Zrotation
											End Site
											{
												OFFSET	1	0	0
											}
										}
									}
								}
							}
						}
					}
					JOINT right_clavicle
					{
						OFFSET	43.2	22.4	-70.8
						CHANNELS 3  Xrotation Yrotation Zrotation
						JOINT right_shoulder
						{
							OFFSET	93.9	-5.79999	48.7
							CHANNELS 3  Xrotation Yrotation Zrotation
							JOINT right_elbow
							{
								OFFSET	291.4	-30.8	15.2
								CHANNELS 3  Xrotation Yrotation Zrotation
								JOINT right_lowarm_twist
								{
									OFFSET	110.7	-3.89999	13.6
									CHANNELS 3  Xrotation Yrotation Zrotation
									JOINT right_hand
									{
										OFFSET	110.7	-3.89999	13.6
										CHANNELS 3  Xrotation Yrotation Zrotation
										JOINT right_ee
										{
											OFFSET	80.8	-5.10001	12.1
											CHANNELS 3  Xrotation Yrotation Zrotation
											End Site
											{
												OFFSET	1	0	0
											}
										}
									}
								}
							}
						}
					}
				}
			}
		}
	}
	JOINT left_hip
	{
		OFFSET	-82.8	-127.5	0.300001
		CHANNELS 3  Xrotation Yrotation Zrotation
		JOINT left_knee
		{
			OFFSET	-28.2	-396.7	2.2
			CHANNELS 3  Xrotation Yrotation Zrotation
			JOINT left_ankle
			{
				OFFSET	-11.7	-411.3	35.4
				CHANNELS 3  Xrotation Yrotation Zrotation
				JOINT left_toes
				{
					OFFSET	0	-60	-88.6
					CHANNELS 3  Xrotation Yrotation Zrotation
					JOINT left_foot_ee
					{
						OFFSET	-22.5	-16.5	-42.2
						CHANNELS 3  Xrotation Yrotation Zrotation
						End Site
						{
							OFFSET	1	0	0
						}
					}
				}
			}
		}
	}
	JOINT right_hip
	{
		OFFSET	82.8	-127.5	0.300001
		CHANNELS 3  Xrotation Yrotation Zrotation
		JOINT right_knee
		{
			OFFSET	28.2	-396.7	2.2
			CHANNELS 3  Xrotation Yrotation Zrotation
			JOINT right_ankle
			{
				OFFSET	11.7	-411.3	35.4
				CHANNELS 3  Xrotation Yrotation Zrotation
				JOINT right_toes
				{
					OFFSET	0	-60	-88.6
					CHANNELS 3  Xrotation Yrotation Zrotation
					JOINT right_foot_ee
					{
						OFFSET	22.5	-16.5	-42.2
						CHANNELS 3  Xrotation Yrotation Zrotation
						End Site
						{
							OFFSET	1	0	0
						}
					}
				}
			}
		}
	}
}
MOTION
Frames: 9
Frame Time: 0.02
2582.04403884 754.798 -1531.81292793 30.2512456827 69.9386806645 -28.2948003278 -3.3141 0.0195758 0.254886 -3.31407 0.00331714 0.255616 -3.31401 -0.0648841 0.247266 -3.31409 -0.025019 0.25441 -12.2736 0.484185 0.113961 -12.2739 0.845951 0.24738 -0.0 0.0 -0.0 4.99862 20.2291 9.71542 -10.3925 -14.3495 66.4209 0.533303 -14.7986 0.069258 -75.906 -7.30058 5.31611 0.145126 12.3846 6.02335 -0.0 0.0 -0.0 7.64344 9.07216 -14.783 6.47542 21.9245 -68.4354 1.57884 38.0266 -0.54408 81.1987 3.97745 8.67589 -0.511913 -23.6065 -6.45603 0.0 0.0 0.0 8.38517 30.9548 -20.6914 -41.3382 -0.554089 6.18458 28.6552 9.55827 -3.7487 -40.1394 0.0 0.0 -0.0 0.0 -0.0 12.3481 37.196 -13.443 -19.956 -0.296161 -3.03262 17.8945 -20.6972 2.53513 1.28525 -0.0 -0.0 0.0 0.0 0.0 
2579.68627517 754.798 -1522.0526319 34.1899121904 72.089441164 -32.4591365855 -3.3141 0.0195758 0.254886 -3.31407 0.00331714 0.255616 -3.31401 -0.0648841 0.247266 -3.31409 -0.025019 0.25441 -12.2736 0.484185 0.113961 -12.2739 0.845951 0.24738 -0.0 0.0 -0.0 4.99862 20.2291 9.71542 -10.3925 -14.3495 66.4209 0.533303 -14.7986 0.069258 -75.906 -7.30058 5.31611 0.145126 12.3846 6.02335 -0.0 0.0 -0.0 7.64344 9.07216 -14.783 6.47542 21.9245 -68.4354 1.57884 38.0266 -0.54408 81.1987 3.97745 8.67589 -0.511913 -23.6065 -6.45603 0.0 0.0 0.0 8.38517 30.9548 -20.6914 -41.3382 -0.554089 6.18458 28.6552 9.55827 -3.7487 -40.1394 0.0 0.0 -0.0 0.0 -0.0 12.3481 37.196 -13.443 -19.956 -0.296161 -3.03262 17.8945 -20.6972 2.53513 1.28525 -0.0 -0.0 0.0 0.0 0.0 
2563.62107077 751.543 -1512.43083283 45.8324186314 76.0326736746 -43.8513548534 -3.36581 -0.283994 0.0154823 -3.36586 -0.284403 -0.00262045 -3.3659 -0.273362 -0.0785216 -3.3658 -0.282332 -0.0343634 -13.7718 1.21002 0.859741 -13.772 1.77816 1.19236 -0.0 0.0 -0.0 4.75026 20.7482 9.33367 -9.59568 -14.6778 67.8546 0.249504 -7.04602 0.0153609 -75.6945 -7.27358 5.31697 1.23853 11.807 12.8309 -0.0 0.0 -0.0 7.63323 10.6319 -14.7083 5.30483 21.11 -66.7169 1.97675 44.3937 -0.806635 83.4478 4.24165 8.79205 -0.101192 -17.4333 -6.47031 0.0 0.0 0.0 9.2635 31.2981 -20.5856 -18.1426 0.313121 2.75492 31.2837 3.24968 -4.02834 -39.6327 0.0 0.0 -0.0 0.0 -0.0 9.72863 34.8548 -11.9193 -18.7003 -0.308841 -2.84038 21.8707 -19.483 3.03182 -1.43251 0.0 0.0 0.0 0.0 0.0 
2556.50146695 751.604 -1503.15875833 49.8113988893 77.6521178111 -48.1296071765 -3.4876 -0.0876647 0.213704 -3.48758 -0.101086 0.207693 -3.48794 -0.153277 0.172802 -3.48796 -0.124063 0.194841 -11.3705 0.917333 0.459773 -11.3709 1.43469 0.69184 -0.0 0.0 -0.0 4.7194 21.5637 9.26987 -9.63558 -14.5723 67.3113 0.222739 -6.29661 0.0122514 -76.7568 -7.40915 5.31165 1.87397 11.2277 16.8191 -0.0 0.0 -0.0 7.71123 11.128 -14.8559 3.90705 21.3941 -66.3221 2.23653 47.9242 -0.994097 85.2713 4.45904 8.87857 0.251122 -16.3847 -8.23642 0.0 0.0 0.0 8.6122 31.8981 -19.8059 -13.2718 0.315113 2.00782 30.9298 3.70232 -3.98994 -38.7718 0.0 0.0 -0.0 0.0 -0.0 9.85493 34.5343 -11.6876 -17.8979 -0.314736 -2.7174 22.9115 -20.2739 3.17122 -3.56668 0.0 0.0 0.0 0.0 0.0 
2529.8711911 750.475 -1474.3138294 51.1913048419 79.9639136068 -48.0549084258 -3.31417 -0.0479227 -0.238653 -3.31414 -0.0326395 -0.241218 -3.31395 0.0327859 -0.241199 -3.31403 -0.00571831 -0.243349 -9.31583 -0.728483 2.59764 -9.29794 -3.15191 2.37385 -0.0 0.0 -0.0 4.11171 23.8622 8.36804 -9.72743 -13.2985 69.4936 0.335691 -9.44159 0.0277215 -76.0209 -7.31525 5.3156 4.31696 5.83125 32.5555 -0.0 0.0 -0.0 7.0347 11.6608 -13.3878 -1.2793 21.0479 -63.1174 2.78428 54.0467 -1.4203 83.8635 4.29096 8.81238 1.20778 -12.4733 -12.8701 0.0 0.0 0.0 6.62832 34.145 -17.8886 -6.64498 0.216008 0.996363 30.3506 6.65866 -3.92562 -31.381 0.0 0.0 -0.0 0.0 -0.0 6.74357 29.4109 -9.48288 -12.3665 -0.308484 -1.86908 29.8874 -19.3956 3.98131 -11.7888 0.0 0.0 0.0 0.0 0.0 
2529.87507238 750.475 -1472.22083157 53.1940252312 80.2351492613 -50.087892354 -3.31417 -0.0479227 -0.238653 -3.31414 -0.0326395 -0.241218 -3.31395 0.0327859 -0.241199 -3.31403 -0.00571831 -0.243349 -9.31583 -0.728483 2.59764 -9.29794 -3.15191 2.37385 -0.0 0.0 -0.0 4.11171 23.8622 8.36804 -9.72743 -13.2985 69.4936 0.335691 -9.44159 0.0277215 -76.0209 -7.31525 5.3156 4.31696 5.83125 32.5555 -0.0 0.0 -0.0 7.0347 11.6608 -13.3878 -1.2793 21.0479 -63.1174 2.78428 54.0467 -1.4203 83.8635 4.29096 8.81238 1.20778 -12.4733 -12.8701 0.0 0.0 0.0 6.62832 34.145 -17.8886 -6.64498 0.216008 0.996363 30.3506 6.65866 -3.92562 -31.381 0.0 0.0 -0.0 0.0 -0.0 6.74357 29.4109 -9.48288 -12.3665 -0.308484 -1.86908 29.8874 -19.3956 3.98131 -11.7888 0.0 0.0 0.0 0.0 0.0 
2529.89041234 750.475 -1470.49647914 54.9282223445 80.4491016471 -51.8470145074 -3.31417 -0.0479227 -0.238653 -3.31414 -0.0326395 -0.241218 -3.31395 0.0327859 -0.241199 -3.31403 -0.00571831 -0.243349 -9.31583 -0.728483 2.59764 -9.29794 -3.15191 2.37385 -0.0 0.0 -0.0 4.11171 23.8622 8.36804 -9.72743 -13.2985 69.4936 0.335691 -9.44159 0.0277215 -76.0209 -7.31525 5.3156 4.31696 5.83125 32.5555 -0.0 0.0 -0.0 7.0347 11.6608 -13.3878 -1.2793 21.0479 -63.1174 2.78428 54.0467 -1.4203 83.8635 4.29096 8.81238 1.20778 -12.4733 -12.8701 0.0 0.0 0.0 6.62832 34.145 -17.8886 -6.64498 0.216008 0.996363 30.3506 6.65866 -3.92562 -31.381 0.0 0.0 -0.0 0.0 -0.0 6.74357 29.4109 -9.48288 -12.3665 -0.308484 -1.86908 29.8874 -19.3956 3.98131 -11.7888 0.0 0.0 0.0 0.0 0.0 
2529.95473836 750.475 -1467.01849015 58.665673032 80.8519601099 -55.6347227983 -3.31417 -0.0479227 -0.238653 -3.31414 -0.0326395 -0.241218 -3.31395 0.0327859 -0.241199 -3.31403 -0.00571831 -0.243349 -9.31583 -0.728483 2.59764 -9.29794 -3.15191 2.37385 -0.0 0.0 -0.0 4.11171 23.8622 8.36804 -9.72743 -13.2985 69.4936 0.335691 -9.44159 0.0277215 -76.0209 -7.31525 5.3156 4.31696 5.83125 32.5555 -0.0 0.0 -0.0 7.0347 11.6608 -13.3878 -1.2793 21.0479 -63.1174 2.78428 54.0467 -1.4203 83.8635 4.29096 8.81238 1.20778 -12.4733 -12.8701 0.0 0.0 0.0 6.62832 34.145 -17.8886 -6.64498 0.216008 0.996363 30.3506 6.65866 -3.92562 -31.381 0.0 0.0 -0.0 0.0 -0.0 6.74357 29.4109 -9.48288 -12.3665 -0.308484 -1.86908 29.8874 -19.3956 3.98131 -11.7888 0.0 0.0 0.0 0.0 0.0 
2527.62956772 749.038 -1464.64639834 53.8822536638 80.5056846082 -50.6634589955 -3.34368 -0.0850377 -0.359847 -3.34361 -0.0619675 -0.364529 -3.34311 0.037547 -0.367847 -3.3433 -0.0210184 -0.36916 -8.9572 -1.22774 2.59921 -8.93974 -4.10091 2.27117 -0.0 0.0 -0.0 4.07436 24.274 8.31177 -9.63817 -12.9586 69.5356 0.388124 -10.8834 0.0369736 -75.6018 -7.26174 5.31731 4.51167 5.17048 33.8613 -0.0 0.0 -0.0 6.75245 12.0966 -12.7646 -2.02712 20.8192 -62.1746 2.84673 54.6481 -1.47104 83.5147 4.24957 8.79535 1.26282 -12.2586 -13.1511 0.0 0.0 0.0 6.47963 34.5339 -17.8576 -6.3292 0.20837 0.948504 29.6312 8.52846 -3.85173 -30.2067 0.0 0.0 -0.0 0.0 -0.0 5.65576 29.0905 -8.85505 -10.4625 -0.287395 -1.57771 32.9233 -19.0254 4.30564 -11.8819 0.0 0.0 0.0 0.0 0.0 
